<svg xmlns="http://www.w3.org/2000/svg" xmlns:xlink="http://www.w3.org/1999/xlink" width="188.501" height="39.981" viewBox="0 0 188.501 39.981">
  <defs>
    <clipPath id="clip-path">
      <path id="Path_29303" data-name="Path 29303" d="M9.774,24.342v-8.7l7.538-4.352,7.538,4.352v8.7l-7.538,4.352ZM17.312,0,0,10v19.99l17.312,10,17.312-10V10l-2,1.156V28.83l-15.31,8.84L2,28.83V11.151l15.311-8.84,7.537,4.352v6.664L17.312,8.975,7.773,14.483V25.5l9.539,5.507L26.851,25.5V5.507l-2-1.156Z" fill="none"/>
    </clipPath>
    <linearGradient id="linear-gradient" x1="0.093" y1="0.929" x2="0.101" y2="0.929" gradientUnits="objectBoundingBox">
      <stop offset="0" stop-color="#b98853"/>
      <stop offset="0.021" stop-color="#b98853"/>
      <stop offset="0.184" stop-color="#62421a"/>
      <stop offset="0.407" stop-color="#b98853"/>
      <stop offset="0.522" stop-color="#b98853"/>
      <stop offset="0.64" stop-color="#b98853"/>
      <stop offset="0.789" stop-color="#4d3011"/>
      <stop offset="0.949" stop-color="#b98853"/>
      <stop offset="1" stop-color="#b98853"/>
    </linearGradient>
    <clipPath id="clip-path-2">
      <rect id="Rectangle_2656" data-name="Rectangle 2656" width="188.501" height="39.981" fill="none"/>
    </clipPath>
  </defs>
  <g id="logo" transform="translate(-632.687 -386.384)">
    <g id="Group_4622" data-name="Group 4622" transform="translate(632.687 386.384)">
      <g id="Group_4619" data-name="Group 4619">
        <g id="Group_4618" data-name="Group 4618" clip-path="url(#clip-path)">
          <rect id="Rectangle_2653" data-name="Rectangle 2653" width="42.567" height="46.615" transform="translate(-8.575 1.933) rotate(-12.701)" fill="url(#linear-gradient)"/>
        </g>
      </g>
      <rect id="Rectangle_2654" data-name="Rectangle 2654" width="138.188" height="0.172" transform="translate(50.313 27.809)" fill="#1a1818"/>
      <g id="Group_4621" data-name="Group 4621">
        <g id="Group_4620" data-name="Group 4620" clip-path="url(#clip-path-2)">
          <path id="Path_29304" data-name="Path 29304" d="M160.092,11.35a8.5,8.5,0,0,0-5.842-3.083h-7.39a.765.765,0,0,0-.783.783V28.48a.765.765,0,0,0,.783.783h7.43a8.483,8.483,0,0,0,5.8-3.083,10.2,10.2,0,0,0,2.274-7.414,10.2,10.2,0,0,0-2.274-7.415m.708,7.486c.389,4.527-2.576,8.5-6.58,8.862h-6.578V9.832l6.534,0c4.041.36,7.012,4.341,6.622,8.907Z" transform="translate(-95.765 -5.42)" fill="#1a1818"/>
          <rect id="Rectangle_2655" data-name="Rectangle 2655" width="1.565" height="20.996" transform="translate(73.601 2.847)" fill="#1a1818"/>
          <path id="Path_29305" data-name="Path 29305" d="M244.249,8.78a.791.791,0,0,0-1.425,0l-8.54,19.435-.468,1.093h1.74l.157-.475,7.824-17.791,7.81,17.755.17.511h1.74l-.47-1.1Z" transform="translate(-153.285 -5.462)" fill="#1a1818"/>
          <path id="Path_29306" data-name="Path 29306" d="M323.65,8.338h0a.768.768,0,0,0-.872.427l-8.094,17.863-8.12-17.86a.785.785,0,0,0-1.494.316V29.3h1.565V12.692l7.336,16.134a.791.791,0,0,0,1.424.009l7.314-16.144.026,15.824V29.3H324.3l-.03-20.214a.765.765,0,0,0-.621-.746" transform="translate(-199.997 -5.454)" fill="#1a1818"/>
          <path id="Path_29307" data-name="Path 29307" d="M396.053,19.01a5.349,5.349,0,0,0,2.442-4.4c0-3.029-2.729-5.493-6.084-5.493l-7.034.029a.765.765,0,0,0-.783.782l-.014,9.351-.015.3.014.243-.014,8.921a.766.766,0,0,0,.783.783h8.273a5.8,5.8,0,0,0,6.053-5.494,5.542,5.542,0,0,0-3.62-5.026m-2.433,1.1a4.24,4.24,0,0,1,4.487,3.928,4.241,4.241,0,0,1-4.489,3.928l-7.46.028-.012-7.884Zm-7.489-9.421h6.282c2.491,0,4.517,1.762,4.517,3.928s-2.026,3.928-4.519,3.928l-6.268.026Z" transform="translate(-252.112 -5.98)" fill="#1a1818"/>
          <path id="Path_29308" data-name="Path 29308" d="M446.965,9.05V28.481a.766.766,0,0,0,.783.783h14.326V27.7H448.53v-8.15h9.922V17.982H448.53V9.832h13.543V8.267H447.748a.766.766,0,0,0-.783.783" transform="translate(-293.02 -5.42)" fill="#1a1818"/>
          <path id="Path_29309" data-name="Path 29309" d="M511.785,27.7V8.267H510.22V28.48a.766.766,0,0,0,.783.783h11.97V27.7Z" transform="translate(-334.489 -5.42)" fill="#1a1818"/>
          <path id="Path_29310" data-name="Path 29310" d="M149.524,93.75h-.291a1.35,1.35,0,0,0-2.617,0c0,1.011,3.061,1.011,3.053,2.326a1.817,1.817,0,0,1-3.49,0h.291c0,.575.676,1.018,1.454,1.018s1.454-.451,1.454-1.018c0-1.032-3.046-1.018-3.054-2.326a1.632,1.632,0,0,1,3.2,0" transform="translate(-95.832 -60.603)" fill="#1a1818"/>
          <path id="Path_29311" data-name="Path 29311" d="M170.344,92.441h.145v.291h-3.2v2.035h2.341v.291H167.29v2.036h3.2v.291H167V92.441h3.344Z" transform="translate(-109.481 -60.603)" fill="#1a1818"/>
          <path id="Path_29312" data-name="Path 29312" d="M187.243,96.221h-.094l-.473,1.076-.036.087h-.32l.094-.2,2.036-4.652.036-.087h.189l.036.087,2.036,4.652.094.2h-.32l-.036-.087-.473-1.076h-2.77Zm2.647-.291-1.308-2.981-1.309,2.981Z" transform="translate(-122.147 -60.602)" fill="#1a1818"/>
          <path id="Path_29313" data-name="Path 29313" d="M209.482,92.587v-.145h.291v4.653h2.617v.291h-2.908v-4.8Z" transform="translate(-137.332 -60.603)" fill="#1a1818"/>
          <path id="Path_29314" data-name="Path 29314" d="M231.535,92.441h.145v.291h-3.2v2.035h2.341v.291h-2.341v2.036h3.2v.291h-3.489V92.441h3.344Z" transform="translate(-149.597 -60.603)" fill="#1a1818"/>
          <path id="Path_29315" data-name="Path 29315" d="M249.577,97.384h-.145V92.441h1.9a2.566,2.566,0,0,1,0,4.943h-1.759Zm.145-.291h1.592a1.933,1.933,0,0,0,1.607-2.181V94.9a1.926,1.926,0,0,0-1.607-2.166h-1.592Z" transform="translate(-163.522 -60.602)" fill="#1a1818"/>
          <path id="Path_29316" data-name="Path 29316" d="M286.567,92.616l-.037-.175h.3l.029.116.909,4.173,1.57-4.2.036-.094h.2l.036.094,1.57,4.2.909-4.173.029-.116h.3l-.036.175-1.018,4.653-.029.116h-.218l-.036-.095L289.475,93l-1.607,4.289-.037.095h-.218l-.029-.116Z" transform="translate(-187.843 -60.603)" fill="#1a1818"/>
          <path id="Path_29317" data-name="Path 29317" d="M313.811,92.587v-.145h.291v4.943h-.291v-4.8Z" transform="translate(-205.727 -60.603)" fill="#1a1818"/>
          <path id="Path_29318" data-name="Path 29318" d="M326.941,92.441h1.738v.291h-1.738v4.652h-.291V92.733H324.9v-.291h2.043Z" transform="translate(-212.996 -60.603)" fill="#1a1818"/>
          <path id="Path_29319" data-name="Path 29319" d="M349.772,95.059v2.326h-.291V95.059h-3.053v2.326h-.291V92.442h.291v2.326h3.053V92.442h.291v2.617Z" transform="translate(-226.92 -60.603)" fill="#1a1818"/>
          <path id="Path_29320" data-name="Path 29320" d="M385.475,92.587v-.145h.291v4.943h-.291v-4.8Z" transform="translate(-252.709 -60.603)" fill="#1a1818"/>
          <path id="Path_29321" data-name="Path 29321" d="M398.54,97.24v.145h-.291V92.442h.218l.044.058,3.075,4.289.007-4.2v-.145h.291v.145l-.007,4.653v.145h-.218l-.044-.058-3.075-4.289Z" transform="translate(-261.084 -60.603)" fill="#1a1818"/>
          <path id="Path_29322" data-name="Path 29322" d="M421.113,92.441h1.738v.291h-1.738v4.652h-.291V92.733H419.07v-.291h2.043Z" transform="translate(-274.733 -60.603)" fill="#1a1818"/>
          <path id="Path_29323" data-name="Path 29323" d="M443.655,92.441h.145v.291h-3.2v2.035h2.341v.291H440.6v2.036h3.2v.291h-3.489V92.441h3.344Z" transform="translate(-288.658 -60.603)" fill="#1a1818"/>
          <path id="Path_29324" data-name="Path 29324" d="M462.9,95.059v-.291h2.166v.146a2.2,2.2,0,1,1-2.174-2.472,2.18,2.18,0,0,1,1.869,1.062l-.262.131a1.848,1.848,0,0,0-1.607-.9,2.2,2.2,0,0,0,0,4.362,2.015,2.015,0,0,0,1.883-2.036Z" transform="translate(-302.03 -60.603)" fill="#1a1818"/>
          <path id="Path_29325" data-name="Path 29325" d="M487.028,95.015a4.261,4.261,0,0,1,1.083,2.182l.058.189h-.305l-.029-.1c-.48-1.571-.771-1.9-1.214-2.225h-1.846v2.326h-.291V97.24l.008-4.646v-.145h.145l2.021-.007a1.394,1.394,0,0,1,1.461,1.316,1.331,1.331,0,0,1-1.09,1.257m-.836-.247h.473a1.027,1.027,0,1,0-.007-2.036h-1.883v2.043c.472,0,.945-.007,1.418-.007" transform="translate(-317.616 -60.603)" fill="#1a1818"/>
          <path id="Path_29326" data-name="Path 29326" d="M506.168,92.587v-.145h.291v4.943h-.291v-4.8Z" transform="translate(-331.832 -60.603)" fill="#1a1818"/>
          <path id="Path_29327" data-name="Path 29327" d="M519.3,92.441h1.738v.291H519.3v4.652h-.291V92.733h-1.752v-.291H519.3Z" transform="translate(-339.101 -60.603)" fill="#1a1818"/>
          <path id="Path_29328" data-name="Path 29328" d="M538.825,94.957v2.428h-.291V94.957l-1.519-2.29-.145-.226h.349l.044.066,1.418,2.144,1.389-2.144.043-.066h.349l-.146.226Z" transform="translate(-351.96 -60.602)" fill="#1a1818"/>
        </g>
      </g>
    </g>
    <g id="Group_76214" data-name="Group 76214" transform="translate(632.687 386.384)">
      <g id="Group_4619-2" data-name="Group 4619">
        <g id="Group_4618-2" data-name="Group 4618" clip-path="url(#clip-path)">
          <rect id="Rectangle_2653-2" data-name="Rectangle 2653" width="42.567" height="46.615" transform="translate(-8.575 1.933) rotate(-12.701)" fill="url(#linear-gradient)"/>
        </g>
      </g>
      <rect id="Rectangle_2654-2" data-name="Rectangle 2654" width="138.188" height="0.172" transform="translate(50.313 27.809)" fill="#1a1818"/>
      <g id="Group_4621-2" data-name="Group 4621">
        <g id="Group_4620-2" data-name="Group 4620" clip-path="url(#clip-path-2)">
          <path id="Path_29304-2" data-name="Path 29304" d="M160.092,11.35a8.5,8.5,0,0,0-5.842-3.083h-7.39a.765.765,0,0,0-.783.783V28.48a.765.765,0,0,0,.783.783h7.43a8.483,8.483,0,0,0,5.8-3.083,10.2,10.2,0,0,0,2.274-7.414,10.2,10.2,0,0,0-2.274-7.415m.708,7.486c.389,4.527-2.576,8.5-6.58,8.862h-6.578V9.832l6.534,0c4.041.36,7.012,4.341,6.622,8.907Z" transform="translate(-95.765 -5.42)" fill="#1a1818"/>
          <rect id="Rectangle_2655-2" data-name="Rectangle 2655" width="1.565" height="20.996" transform="translate(73.601 2.847)" fill="#1a1818"/>
          <path id="Path_29305-2" data-name="Path 29305" d="M244.249,8.78a.791.791,0,0,0-1.425,0l-8.54,19.435-.468,1.093h1.74l.157-.475,7.824-17.791,7.81,17.755.17.511h1.74l-.47-1.1Z" transform="translate(-153.285 -5.462)" fill="#1a1818"/>
          <path id="Path_29306-2" data-name="Path 29306" d="M323.65,8.338h0a.768.768,0,0,0-.872.427l-8.094,17.863-8.12-17.86a.785.785,0,0,0-1.494.316V29.3h1.565V12.692l7.336,16.134a.791.791,0,0,0,1.424.009l7.314-16.144.026,15.824V29.3H324.3l-.03-20.214a.765.765,0,0,0-.621-.746" transform="translate(-199.997 -5.454)" fill="#1a1818"/>
          <path id="Path_29307-2" data-name="Path 29307" d="M396.053,19.01a5.349,5.349,0,0,0,2.442-4.4c0-3.029-2.729-5.493-6.084-5.493l-7.034.029a.765.765,0,0,0-.783.782l-.014,9.351-.015.3.014.243-.014,8.921a.766.766,0,0,0,.783.783h8.273a5.8,5.8,0,0,0,6.053-5.494,5.542,5.542,0,0,0-3.62-5.026m-2.433,1.1a4.24,4.24,0,0,1,4.487,3.928,4.241,4.241,0,0,1-4.489,3.928l-7.46.028-.012-7.884Zm-7.489-9.421h6.282c2.491,0,4.517,1.762,4.517,3.928s-2.026,3.928-4.519,3.928l-6.268.026Z" transform="translate(-252.112 -5.98)" fill="#1a1818"/>
          <path id="Path_29308-2" data-name="Path 29308" d="M446.965,9.05V28.481a.766.766,0,0,0,.783.783h14.326V27.7H448.53v-8.15h9.922V17.982H448.53V9.832h13.543V8.267H447.748a.766.766,0,0,0-.783.783" transform="translate(-293.02 -5.42)" fill="#1a1818"/>
          <path id="Path_29309-2" data-name="Path 29309" d="M511.785,27.7V8.267H510.22V28.48a.766.766,0,0,0,.783.783h11.97V27.7Z" transform="translate(-334.489 -5.42)" fill="#1a1818"/>
          <path id="Path_29310-2" data-name="Path 29310" d="M149.524,93.75h-.291a1.35,1.35,0,0,0-2.617,0c0,1.011,3.061,1.011,3.053,2.326a1.817,1.817,0,0,1-3.49,0h.291c0,.575.676,1.018,1.454,1.018s1.454-.451,1.454-1.018c0-1.032-3.046-1.018-3.054-2.326a1.632,1.632,0,0,1,3.2,0" transform="translate(-95.832 -60.603)" fill="#1a1818"/>
          <path id="Path_29311-2" data-name="Path 29311" d="M170.344,92.441h.145v.291h-3.2v2.035h2.341v.291H167.29v2.036h3.2v.291H167V92.441h3.344Z" transform="translate(-109.481 -60.603)" fill="#1a1818"/>
          <path id="Path_29312-2" data-name="Path 29312" d="M187.243,96.221h-.094l-.473,1.076-.036.087h-.32l.094-.2,2.036-4.652.036-.087h.189l.036.087,2.036,4.652.094.2h-.32l-.036-.087-.473-1.076h-2.77Zm2.647-.291-1.308-2.981-1.309,2.981Z" transform="translate(-122.147 -60.602)" fill="#1a1818"/>
          <path id="Path_29313-2" data-name="Path 29313" d="M209.482,92.587v-.145h.291v4.653h2.617v.291h-2.908v-4.8Z" transform="translate(-137.332 -60.603)" fill="#1a1818"/>
          <path id="Path_29314-2" data-name="Path 29314" d="M231.535,92.441h.145v.291h-3.2v2.035h2.341v.291h-2.341v2.036h3.2v.291h-3.489V92.441h3.344Z" transform="translate(-149.597 -60.603)" fill="#1a1818"/>
          <path id="Path_29315-2" data-name="Path 29315" d="M249.577,97.384h-.145V92.441h1.9a2.566,2.566,0,0,1,0,4.943h-1.759Zm.145-.291h1.592a1.933,1.933,0,0,0,1.607-2.181V94.9a1.926,1.926,0,0,0-1.607-2.166h-1.592Z" transform="translate(-163.522 -60.602)" fill="#1a1818"/>
          <path id="Path_29316-2" data-name="Path 29316" d="M286.567,92.616l-.037-.175h.3l.029.116.909,4.173,1.57-4.2.036-.094h.2l.036.094,1.57,4.2.909-4.173.029-.116h.3l-.036.175-1.018,4.653-.029.116h-.218l-.036-.095L289.475,93l-1.607,4.289-.037.095h-.218l-.029-.116Z" transform="translate(-187.843 -60.603)" fill="#1a1818"/>
          <path id="Path_29317-2" data-name="Path 29317" d="M313.811,92.587v-.145h.291v4.943h-.291v-4.8Z" transform="translate(-205.727 -60.603)" fill="#1a1818"/>
          <path id="Path_29318-2" data-name="Path 29318" d="M326.941,92.441h1.738v.291h-1.738v4.652h-.291V92.733H324.9v-.291h2.043Z" transform="translate(-212.996 -60.603)" fill="#1a1818"/>
          <path id="Path_29319-2" data-name="Path 29319" d="M349.772,95.059v2.326h-.291V95.059h-3.053v2.326h-.291V92.442h.291v2.326h3.053V92.442h.291v2.617Z" transform="translate(-226.92 -60.603)" fill="#1a1818"/>
          <path id="Path_29320-2" data-name="Path 29320" d="M385.475,92.587v-.145h.291v4.943h-.291v-4.8Z" transform="translate(-252.709 -60.603)" fill="#1a1818"/>
          <path id="Path_29321-2" data-name="Path 29321" d="M398.54,97.24v.145h-.291V92.442h.218l.044.058,3.075,4.289.007-4.2v-.145h.291v.145l-.007,4.653v.145h-.218l-.044-.058-3.075-4.289Z" transform="translate(-261.084 -60.603)" fill="#1a1818"/>
          <path id="Path_29322-2" data-name="Path 29322" d="M421.113,92.441h1.738v.291h-1.738v4.652h-.291V92.733H419.07v-.291h2.043Z" transform="translate(-274.733 -60.603)" fill="#1a1818"/>
          <path id="Path_29323-2" data-name="Path 29323" d="M443.655,92.441h.145v.291h-3.2v2.035h2.341v.291H440.6v2.036h3.2v.291h-3.489V92.441h3.344Z" transform="translate(-288.658 -60.603)" fill="#1a1818"/>
          <path id="Path_29324-2" data-name="Path 29324" d="M462.9,95.059v-.291h2.166v.146a2.2,2.2,0,1,1-2.174-2.472,2.18,2.18,0,0,1,1.869,1.062l-.262.131a1.848,1.848,0,0,0-1.607-.9,2.2,2.2,0,0,0,0,4.362,2.015,2.015,0,0,0,1.883-2.036Z" transform="translate(-302.03 -60.603)" fill="#1a1818"/>
          <path id="Path_29325-2" data-name="Path 29325" d="M487.028,95.015a4.261,4.261,0,0,1,1.083,2.182l.058.189h-.305l-.029-.1c-.48-1.571-.771-1.9-1.214-2.225h-1.846v2.326h-.291V97.24l.008-4.646v-.145h.145l2.021-.007a1.394,1.394,0,0,1,1.461,1.316,1.331,1.331,0,0,1-1.09,1.257m-.836-.247h.473a1.027,1.027,0,1,0-.007-2.036h-1.883v2.043c.472,0,.945-.007,1.418-.007" transform="translate(-317.616 -60.603)" fill="#1a1818"/>
          <path id="Path_29326-2" data-name="Path 29326" d="M506.168,92.587v-.145h.291v4.943h-.291v-4.8Z" transform="translate(-331.832 -60.603)" fill="#1a1818"/>
          <path id="Path_29327-2" data-name="Path 29327" d="M519.3,92.441h1.738v.291H519.3v4.652h-.291V92.733h-1.752v-.291H519.3Z" transform="translate(-339.101 -60.603)" fill="#1a1818"/>
          <path id="Path_29328-2" data-name="Path 29328" d="M538.825,94.957v2.428h-.291V94.957l-1.519-2.29-.145-.226h.349l.044.066,1.418,2.144,1.389-2.144.043-.066h.349l-.146.226Z" transform="translate(-351.96 -60.602)" fill="#1a1818"/>
        </g>
      </g>
    </g>
  </g>
</svg>
